<?xml version="1.0" encoding="UTF-8"?>
<svg width="95.25mm" height="349.16mm" version="1.1" viewBox="0 0 360 1319.7" xmlns="http://www.w3.org/2000/svg">
 <g transform="translate(62.857 183.03)">
  <g transform="translate(-462.86 -518.58)" style="fill:#3f3f3f">
   <path d="m440 775.23 279.89 0.0113 0.0111 17.189s-67.159-0.24717-79.102 38.157l-0.80372 514.64-60 310-60-310-0.76881-514.69s-6.7738-35.273-79.325-38.448l0.0938-16.865z" style="fill:#3f3f3f"/>
   <path d="m570.9 335.55a180 180 0 0 0-170.9 179.68 180 180 0 0 0 180 180 180 180 0 0 0 180-180 180 180 0 0 0-167.16-179.36 128.57 128.57 0 0 1 115.73 127.93 128.57 128.57 0 0 1-128.57 128.57 128.57 128.57 0 0 1-128.57-128.57 128.57 128.57 0 0 1 119.48-128.25z" style="fill:#3f3f3f"/>
  </g>
 </g>
</svg>
